<?xml version="1.0" encoding="UTF-8" standalone="no"?><!DOCTYPE svg PUBLIC "-//W3C//DTD SVG 1.1//EN" "http://www.w3.org/Graphics/SVG/1.1/DTD/svg11.dtd"><svg width="100%" height="100%" viewBox="0 0 496 512" version="1.1" xmlns="http://www.w3.org/2000/svg" xmlns:xlink="http://www.w3.org/1999/xlink" xml:space="preserve" xmlns:serif="http://www.serif.com/" style="fill-rule:evenodd;clip-rule:evenodd;stroke-linejoin:round;stroke-miterlimit:2;"><path d="M173.018,394.135c-0,1.872 -2.101,3.369 -4.75,3.369c-3.014,0.281 -5.114,-1.216 -5.114,-3.369c-0,-1.872 2.1,-3.369 4.749,-3.369c2.74,-0.281 5.115,1.217 5.115,3.369Zm-28.404,-4.211c-0.64,1.871 1.187,4.024 3.927,4.585c2.375,0.936 5.114,0 5.662,-1.871c0.548,-1.872 -1.187,-4.025 -3.927,-4.867c-2.374,-0.655 -5.023,0.281 -5.662,2.153Zm40.368,-1.591c-2.649,0.655 -4.475,2.433 -4.201,4.585c0.274,1.872 2.648,3.089 5.388,2.434c2.649,-0.655 4.475,-2.434 4.201,-4.305c-0.274,-1.779 -2.74,-2.995 -5.388,-2.714Zm60.095,-358.637c-126.675,0 -223.577,98.55 -223.577,228.359c0,103.792 63.749,192.608 154.805,223.867c11.691,2.153 15.801,-5.241 15.801,-11.324c-0,-5.803 -0.274,-37.81 -0.274,-57.464c-0,-0 -63.932,14.038 -77.357,-27.89c-0,0 -10.412,-27.235 -25.39,-34.254c-0,0 -20.915,-14.693 1.461,-14.413c-0,0 22.741,1.872 35.254,24.147c20.001,36.125 53.519,25.737 66.58,19.56c2.1,-14.975 8.037,-25.363 14.613,-31.54c-51.054,-5.803 -102.565,-13.383 -102.565,-103.417c0,-25.737 6.941,-38.652 21.554,-55.124c-2.374,-6.083 -10.137,-31.166 2.375,-63.548c19.088,-6.083 63.018,25.27 63.018,25.27c18.266,-5.241 37.902,-7.956 57.356,-7.956c19.453,0 39.089,2.715 57.355,7.956c0,-0 43.93,-31.447 63.018,-25.27c12.513,32.476 4.75,57.465 2.375,63.548c14.613,16.565 23.563,29.481 23.563,55.124c0,90.314 -53.793,97.521 -104.847,103.417c8.402,7.394 15.526,21.432 15.526,43.426c-0,31.54 -0.274,70.566 -0.274,78.241c-0,6.083 4.201,13.477 15.8,11.324c91.331,-31.072 153.253,-119.888 153.253,-223.68c-0,-129.809 -102.747,-228.359 -229.423,-228.359Zm-134.804,322.792c-1.187,0.936 -0.913,3.088 0.64,4.866c1.461,1.498 3.562,2.153 4.749,0.936c1.187,-0.936 0.913,-3.088 -0.639,-4.866c-1.462,-1.498 -3.562,-2.153 -4.75,-0.936Zm-9.863,-7.581c-0.64,1.217 0.274,2.714 2.1,3.65c1.462,0.936 3.288,0.655 3.927,-0.655c0.64,-1.217 -0.273,-2.714 -2.1,-3.65c-1.827,-0.562 -3.288,-0.281 -3.927,0.655Zm29.591,33.318c-1.461,1.217 -0.914,4.024 1.187,5.802c2.101,2.153 4.749,2.434 5.937,0.936c1.187,-1.216 0.639,-4.024 -1.188,-5.802c-2.009,-2.153 -4.749,-2.434 -5.936,-0.936Zm-10.412,-13.758c-1.461,0.936 -1.461,3.369 0,5.522c1.461,2.153 3.927,3.088 5.115,2.153c1.461,-1.217 1.461,-3.65 -0,-5.803c-1.279,-2.153 -3.654,-3.089 -5.115,-1.872Z" style="fill:#faebd7;fill-rule:nonzero;"/></svg>