<?xml version="1.0" encoding="UTF-8" standalone="no"?><!DOCTYPE svg PUBLIC "-//W3C//DTD SVG 1.1//EN" "http://www.w3.org/Graphics/SVG/1.1/DTD/svg11.dtd"><svg width="100%" height="100%" viewBox="0 0 448 512" version="1.1" xmlns="http://www.w3.org/2000/svg" xmlns:xlink="http://www.w3.org/1999/xlink" xml:space="preserve" xmlns:serif="http://www.serif.com/" style="fill-rule:evenodd;clip-rule:evenodd;stroke-linejoin:round;stroke-miterlimit:2;"><path d="M224.048,146.739c-60.479,0 -109.261,48.782 -109.261,109.261c-0,60.479 48.782,109.261 109.261,109.261c60.478,-0 109.26,-48.782 109.26,-109.261c0,-60.479 -48.782,-109.261 -109.26,-109.261Zm-0,180.295c-39.083,-0 -71.034,-31.856 -71.034,-71.034c-0,-39.178 31.856,-71.034 71.034,-71.034c39.177,0 71.033,31.856 71.033,71.034c0,39.178 -31.951,71.034 -71.033,71.034Zm139.214,-184.764c0,14.169 -11.411,25.485 -25.484,25.485c-14.169,-0 -25.485,-11.411 -25.485,-25.485c-0,-14.074 11.411,-25.485 25.485,-25.485c14.073,0 25.484,11.411 25.484,25.485Zm72.365,25.865c-1.616,-34.138 -9.414,-64.377 -34.423,-89.291c-24.914,-24.915 -55.153,-32.712 -89.291,-34.424c-35.184,-1.997 -140.642,-1.997 -175.826,0c-34.043,1.617 -64.282,9.414 -89.291,34.328c-25.009,24.915 -32.712,55.154 -34.423,89.292c-1.997,35.184 -1.997,140.641 -0,175.825c1.616,34.138 9.414,64.377 34.423,89.291c25.009,24.915 55.153,32.712 89.291,34.424c35.184,1.997 140.642,1.997 175.826,-0c34.138,-1.617 64.377,-9.414 89.291,-34.424c24.914,-24.914 32.712,-55.153 34.423,-89.291c1.997,-35.184 1.997,-140.546 0,-175.73Zm-45.454,213.482c-7.417,18.638 -21.776,32.996 -40.509,40.509c-28.052,11.126 -94.616,8.558 -125.616,8.558c-31,0 -97.66,2.472 -125.617,-8.558c-18.638,-7.417 -32.997,-21.776 -40.509,-40.509c-11.126,-28.053 -8.559,-94.617 -8.559,-125.617c0,-31 -2.472,-97.66 8.559,-125.617c7.417,-18.638 21.776,-32.996 40.509,-40.509c28.052,-11.126 94.617,-8.558 125.617,-8.558c31,-0 97.659,-2.472 125.616,8.558c18.638,7.417 32.997,21.776 40.509,40.509c11.126,28.053 8.559,94.617 8.559,125.617c-0,31 2.567,97.66 -8.559,125.617Z" style="fill:#faebd7;fill-rule:nonzero;"/></svg>