<?xml version="1.0" encoding="UTF-8" standalone="no"?><!DOCTYPE svg PUBLIC "-//W3C//DTD SVG 1.1//EN" "http://www.w3.org/Graphics/SVG/1.1/DTD/svg11.dtd"><svg width="100%" height="100%" viewBox="0 0 448 512" version="1.1" xmlns="http://www.w3.org/2000/svg" xmlns:xlink="http://www.w3.org/1999/xlink" xml:space="preserve" xmlns:serif="http://www.serif.com/" style="fill-rule:evenodd;clip-rule:evenodd;stroke-linejoin:round;stroke-miterlimit:2;"><path d="M401,42l-354.092,-0c-16.225,-0 -29.408,13.853 -29.408,30.858l-0,366.284c-0,17.005 13.183,30.858 29.408,30.858l354.092,0c16.225,0 29.5,-13.853 29.5,-30.858l0,-366.284c0,-17.005 -13.275,-30.858 -29.5,-30.858Zm-258.586,366.857l-61.305,0l0,-204.255l61.305,-0l0,204.255Zm-30.698,-232.152c-19.636,0 -35.493,-16.527 -35.493,-36.781c0,-20.253 15.857,-36.781 35.493,-36.781c19.543,-0 35.492,16.528 35.492,36.781c-0,20.349 -15.856,36.781 -35.492,36.781Zm260.061,232.152l-61.213,0l0,-99.357c0,-23.693 -0.461,-54.169 -31.805,-54.169c-31.896,0 -36.782,25.795 -36.782,52.449l-0,101.077l-61.213,0l0,-204.255l58.724,-0l-0,27.896l0.829,0c8.205,-16.05 28.21,-32.96 57.986,-32.96c61.95,0 73.474,42.323 73.474,97.351l-0,111.968Z" style="fill:#faebd7;fill-rule:nonzero;"/></svg>