<?xml version="1.0" encoding="UTF-8" standalone="no"?><!DOCTYPE svg PUBLIC "-//W3C//DTD SVG 1.1//EN" "http://www.w3.org/Graphics/SVG/1.1/DTD/svg11.dtd"><svg width="100%" height="100%" viewBox="0 0 448 512" version="1.1" xmlns="http://www.w3.org/2000/svg" xmlns:xlink="http://www.w3.org/1999/xlink" xml:space="preserve" xmlns:serif="http://www.serif.com/" style="fill-rule:evenodd;clip-rule:evenodd;stroke-linejoin:round;stroke-miterlimit:2;"><path d="M419.935,214.65c-38.515,0.095 -76.101,-12.243 -107.419,-35.262l-0,160.564c-0.029,80.093 -64.223,145.983 -142.226,145.983c-78.022,0 -142.225,-65.923 -142.225,-146.037c0,-80.113 64.203,-146.037 142.225,-146.037c6.533,0 13.058,0.463 19.53,1.384l-0,80.758c-6.339,-2.047 -12.946,-3.089 -19.591,-3.089c-35.817,-0 -65.29,30.263 -65.29,67.039c0,36.777 29.473,67.04 65.29,67.04c35.817,-0 65.29,-30.263 65.29,-67.04c-0,-0 -0,-0.001 -0,-0.001l-0,-313.887l76.997,-0c-0.054,6.676 0.491,13.344 1.627,19.918c5.405,29.646 22.478,55.732 47.169,72.07c17.387,11.805 37.779,18.099 58.623,18.094l-0,78.503Z" style="fill:#faebd7;fill-rule:nonzero;"/></svg>