<?xml version="1.0" encoding="UTF-8" standalone="no"?><!DOCTYPE svg PUBLIC "-//W3C//DTD SVG 1.1//EN" "http://www.w3.org/Graphics/SVG/1.1/DTD/svg11.dtd"><svg width="100%" height="100%" viewBox="0 0 512 512" version="1.1" xmlns="http://www.w3.org/2000/svg" xmlns:xlink="http://www.w3.org/1999/xlink" xml:space="preserve" xmlns:serif="http://www.serif.com/" style="fill-rule:evenodd;clip-rule:evenodd;stroke-linejoin:round;stroke-miterlimit:2;"><path d="M368.316,125.217l-32.098,0l-0,94.06l32.098,-0l0,-94.06Zm-88.219,-0.403l-32.099,0l0,94.103l32.099,-0l-0,-94.103Zm-136.413,-88.314l-80.201,78.386l-0,282.228l96.246,0l-0,78.386l80.209,-78.386l64.189,0l144.39,-141.114l0,-219.5l-304.833,-0Zm272.743,203.852l-64.164,62.695l-64.181,-0l-56.171,54.875l0,-54.875l-72.182,-0l-0,-235.183l256.698,0l-0,172.488Z" style="fill:#faebd7;fill-rule:nonzero;"/></svg>